# Blender v2.82 (sub 7) OBJ File: 'cubecustom.blend'
# www.blender.org
mtllib cubecustom.mtl
o Plane_Plane.001
v -4.592549 -0.483829 -1.044007
v -1.285353 -2.598168 4.624344
v 1.285353 -0.890053 -4.624990
v 4.592549 -3.004392 1.043361
v 2.113296 2.896726 -3.695555
v -3.764605 3.302949 -0.114572
v -0.457409 1.188610 5.553779
v 5.420492 0.782386 1.972796
vt 0.000000 0.000000
vt 0.000000 1.000000
vt 1.000000 1.000000
vt 1.000000 0.000000
vt 0.000000 0.000000
vt 1.000000 0.000000
vt 1.000000 1.000000
vt 0.000000 1.000000
vn -0.2077 -0.9500 -0.2332
vn 0.2077 0.9500 0.2332
vn 0.4797 -0.3067 0.8221
vn -0.4797 0.3067 -0.8221
vn -0.8525 0.0589 0.5194
vn 0.8525 -0.0589 -0.5194
g Plane_Plane.001_Material.001
usemtl Material.001
s off
f 1/1/1 3/2/1 4/3/1 2/4/1
f 6/5/2 7/6/2 8/7/2 5/8/2
f 2/4/3 4/3/3 8/7/3 7/6/3
f 3/2/4 1/1/4 6/5/4 5/8/4
f 1/1/5 2/4/5 7/6/5 6/5/5
g Plane_Plane.001_Material.002
usemtl Material.002
f 4/3/6 3/2/6 5/8/6 8/7/6
